<svg width="32" height="32" viewBox="0 0 32 32" fill="none" xmlns="http://www.w3.org/2000/svg">
<path d="M26.4163 13.3533C26.2326 12.8065 25.7736 12.4142 25.2163 12.3287L19.8261 11.5015L17.4103 6.376C17.1583 5.83525 16.6386 5.5 16.0551 5.5C15.4716 5.5 14.9518 5.836 14.6998 6.3745L12.2833 11.5023L6.8931 12.3295C6.3366 12.415 5.87685 12.808 5.6931 13.354C5.5041 13.9172 5.64135 14.53 6.05085 14.9515L9.97335 18.988L9.04635 24.697C8.94885 25.2985 9.19185 25.885 9.6816 26.2292C9.9366 26.4085 10.2321 26.4993 10.5291 26.4993C10.7743 26.4993 11.0196 26.437 11.2453 26.3125L16.0423 23.6365L20.8656 26.3125C21.3636 26.5893 21.9628 26.557 22.4286 26.2292C22.9183 25.8857 23.1613 25.2985 23.0638 24.6978L22.1368 18.9888L26.0593 14.9523C26.4688 14.5308 26.6061 13.9187 26.4171 13.3547L26.4163 13.3533Z" fill="#FFD400"/>
</svg>
