<svg width="32" height="32" viewBox="0 0 32 32" fill="none" xmlns="http://www.w3.org/2000/svg">
<g clip-path="url(#clip0_706_28257)">
<path d="M3.22827 25.1733L14.416 31.5776C14.9043 31.8528 15.4553 31.9978 16.0159 31.9983L16.0249 32H16.033C16.5947 31.9993 17.147 31.854 17.6362 31.5781L28.8249 25.1697C29.811 24.6023 30.4207 23.553 30.425 22.4155V9.58398C30.4233 8.99951 30.259 8.42725 29.9509 7.93066L29.9478 7.92212C29.9478 7.91675 29.9392 7.91406 29.936 7.90869C29.6584 7.4624 29.2759 7.09106 28.8213 6.82715L17.634 0.422363C16.6345 -0.140869 15.4133 -0.140869 14.4138 0.422363L3.2251 6.82983C2.77075 7.09399 2.38843 7.46558 2.11133 7.91211C2.10815 7.91675 2.10352 7.91943 2.10083 7.92432V7.93237C1.79224 8.42822 1.62744 9 1.625 9.58398V22.4155C1.62939 23.5549 2.24023 24.6057 3.22827 25.1733ZM3.76147 24.2485C3.10547 23.8718 2.69922 23.1746 2.69482 22.4182V9.58398C2.69653 9.36645 2.73242 9.15039 2.80151 8.94409L15.4917 16.3071V30.8672C15.3003 30.8203 15.1162 30.7476 14.9446 30.6506L3.76147 24.2485ZM29.3616 22.4182C29.3574 23.1743 28.9509 23.8713 28.2949 24.2476L17.1077 30.6497C16.9353 30.7468 16.7505 30.8198 16.5583 30.8667V16.3066L29.2517 8.94678C29.3208 9.15308 29.3567 9.36914 29.3584 9.58667L29.3616 22.4182ZM14.9424 1.35083C15.6138 0.9729 16.4341 0.9729 17.1055 1.35083L28.2917 7.75415C28.4316 7.83569 28.5618 7.93335 28.6794 8.04492L16.0249 15.3835L3.3728 8.04419C3.48999 7.93335 3.61938 7.83642 3.7583 7.75464L14.9424 1.35083Z" fill="white"/>
<path d="M19.9817 24.063C19.0039 24.3328 18.2854 25.1663 18.1626 26.1734C18.1162 26.6397 18.2989 27.0994 18.6521 27.407C18.9195 27.6236 19.2544 27.739 19.5984 27.7334C19.7571 27.7329 19.9153 27.7127 20.0694 27.6731C21.0442 27.397 21.7586 26.5635 21.8826 25.5579C21.929 25.0908 21.7454 24.6304 21.3904 24.3233C20.9908 24.0134 20.4658 23.9165 19.9817 24.063ZM20.825 25.4837C20.7339 26.0315 20.3389 26.4798 19.8069 26.6389C19.6507 26.6951 19.4771 26.6756 19.3377 26.5857C19.2505 26.4949 19.211 26.3684 19.231 26.2444C19.3208 25.6958 19.7183 25.2481 20.2522 25.0938C20.3194 25.0762 20.3887 25.0672 20.458 25.0667C20.5681 25.0535 20.6775 25.0955 20.7505 25.179C20.8235 25.2622 20.8506 25.3765 20.8228 25.4837H20.825Z" fill="white"/>
<path d="M5.67145 19.7968C5.18537 19.6479 4.65705 19.7443 4.25495 20.0554C3.89972 20.3625 3.71613 20.823 3.76276 21.29C3.88727 22.2976 4.60456 23.1315 5.58185 23.4057C5.73542 23.4458 5.89313 23.4663 6.05182 23.4665C6.39655 23.4731 6.73249 23.3576 7.00055 23.1408C7.35383 22.833 7.5362 22.3732 7.49006 21.9072C7.36799 20.8999 6.64948 20.0664 5.67145 19.7968ZM6.31403 22.321C6.1756 22.4096 6.00397 22.4292 5.84919 22.3745C5.31452 22.2163 4.91681 21.767 4.82502 21.217C4.805 21.0932 4.84455 20.9675 4.93171 20.8774C5.07209 20.7885 5.24592 20.771 5.40094 20.8298C5.93586 20.9831 6.33454 21.4309 6.42511 21.9797C6.44342 22.1044 6.40241 22.2309 6.31403 22.321Z" fill="white"/>
<path d="M12.6046 24.0635C12.1185 23.915 11.5904 24.0115 11.1881 24.322C10.8328 24.6292 10.6492 25.0896 10.6959 25.5569C10.8204 26.5642 11.5377 27.3982 12.515 27.6726C12.6685 27.7124 12.8262 27.7329 12.9849 27.7334C13.3297 27.7398 13.6656 27.6243 13.9337 27.4075C14.2869 27.0996 14.4693 26.6401 14.4232 26.1738C14.3011 25.1668 13.5826 24.333 12.6046 24.0635ZM13.2471 26.5877C13.1087 26.6763 12.9371 26.6958 12.782 26.6411C12.2476 26.4829 11.8499 26.0337 11.7581 25.4837C11.7381 25.3601 11.7777 25.2341 11.8648 25.1441C12.0052 25.0554 12.179 25.0378 12.334 25.0964C12.869 25.2498 13.2676 25.6975 13.3582 26.2463C13.3765 26.3713 13.3355 26.4976 13.2471 26.5877Z" fill="white"/>
<path d="M5.67134 12.3306C5.18526 12.1821 4.65718 12.2783 4.25484 12.5889C3.89913 12.8955 3.71553 13.3562 3.76265 13.8235C3.88741 14.8308 4.60445 15.6648 5.58174 15.9392C5.73531 15.979 5.89302 15.9995 6.05171 16C6.39644 16.0063 6.73238 15.8911 7.00044 15.6741C7.35372 15.3665 7.53609 14.9067 7.48995 14.4404C7.36788 13.4336 6.64937 12.6001 5.67134 12.3306ZM6.31465 14.8545C6.17598 14.9431 6.00411 14.9626 5.84908 14.9077C5.31465 14.7493 4.91719 14.3001 4.82491 13.7505C4.80489 13.6265 4.84444 13.5005 4.9316 13.4102C5.07247 13.3225 5.24581 13.3054 5.40084 13.3638C5.9355 13.5168 6.33419 13.9644 6.42501 14.5132C6.44332 14.6379 6.40254 14.7639 6.31465 14.8545Z" fill="white"/>
<path d="M12.6046 16.5967C12.1185 16.4478 11.5902 16.5442 11.1881 16.8555C10.8328 17.1624 10.6492 17.6231 10.6959 18.0901C10.8204 19.0974 11.5377 19.9316 12.515 20.2058C12.6685 20.2459 12.8262 20.2661 12.9849 20.2666C13.3297 20.2732 13.6656 20.1577 13.9337 19.9409C14.2869 19.6331 14.4693 19.1733 14.4232 18.7073C14.3011 17.7 13.5826 16.8662 12.6046 16.5967ZM13.2471 19.1211C13.1087 19.2095 12.9371 19.2293 12.782 19.1743C12.2476 19.0164 11.8499 18.5669 11.7581 18.0171C11.7381 17.8933 11.7777 17.7673 11.8648 17.6773C12.0052 17.5889 12.179 17.5713 12.334 17.6299C12.869 17.7832 13.2676 18.2307 13.3582 18.7798C13.3765 18.9045 13.3355 19.031 13.2471 19.1211Z" fill="white"/>
<path d="M26.3818 12.3296C25.4043 12.6003 24.6862 13.4333 24.5625 14.4399C24.5163 14.9062 24.6987 15.366 25.0522 15.6736C25.3193 15.8901 25.6543 16.0058 25.9983 16C26.1574 15.9993 26.3159 15.9787 26.4697 15.9387C27.4445 15.6626 28.1589 14.8293 28.2832 13.824C28.3296 13.3569 28.146 12.8962 27.7907 12.5893C27.3908 12.28 26.8659 12.1833 26.3818 12.3296ZM27.2251 13.7505C27.1338 14.2981 26.7387 14.7463 26.2068 14.9055C26.0505 14.9609 25.8774 14.9414 25.7375 14.8523C25.6504 14.7615 25.6108 14.6352 25.6308 14.511C25.7209 13.9624 26.1186 13.5146 26.6528 13.3606C26.7199 13.3428 26.789 13.3337 26.8586 13.3332C26.9687 13.3201 27.0781 13.362 27.1511 13.4455C27.2238 13.529 27.2507 13.6431 27.2229 13.7505H27.2251Z" fill="white"/>
<path d="M23.1819 18.1963C22.2038 18.4661 21.4853 19.2996 21.3625 20.3066C21.3164 20.7729 21.4987 21.2327 21.8523 21.5403C22.1194 21.7568 22.4543 21.8723 22.7983 21.8667C22.9572 21.8662 23.1154 21.8459 23.2693 21.8064C24.2441 21.5303 24.9585 20.6968 25.0825 19.6912C25.1289 19.2241 24.9453 18.7637 24.5903 18.4565C24.1904 18.1472 23.6657 18.05 23.1819 18.1963ZM24.0249 19.6172C23.9338 20.1648 23.5388 20.613 23.0068 20.7722C22.8506 20.8286 22.6772 20.8088 22.5376 20.719C22.4504 20.6282 22.4109 20.5017 22.4309 20.3777C22.5207 19.8291 22.9182 19.3813 23.4521 19.2273C23.5193 19.2095 23.5886 19.2004 23.6579 19.1999C23.768 19.1868 23.8777 19.2288 23.9507 19.3123C24.0236 19.3957 24.0505 19.5098 24.0229 19.6172H24.0249Z" fill="white"/>
<path d="M14.7097 9.73537C15.0988 9.99855 15.5583 10.138 16.0283 10.1355C16.6301 10.1431 17.2102 9.91017 17.6398 9.48854C18.009 9.12892 18.1967 8.62209 18.1508 8.1089C18.09 7.57252 17.7944 7.09108 17.3439 6.7942C16.4274 6.18141 15.2089 6.28615 14.4106 7.0464C14.0405 7.4026 13.852 7.90749 13.8979 8.4192C13.9589 8.95705 14.2565 9.43971 14.7097 9.73537ZM15.1716 7.79738C15.4035 7.57863 15.7121 7.45973 16.0307 7.46657C16.2832 7.46364 16.5305 7.53615 16.7412 7.67458C16.9309 7.79176 17.0585 7.98732 17.0891 8.20802C17.1037 8.407 17.0271 8.60207 16.8803 8.73756C16.4443 9.12721 15.8007 9.17458 15.3125 8.8528C15.1208 8.73585 14.9919 8.53883 14.9614 8.31618C14.9482 8.12013 15.0256 7.92897 15.1716 7.79738Z" fill="white"/>
</g>
<defs>
<clipPath id="clip0_706_28257">
<rect width="32" height="32" fill="white"/>
</clipPath>
</defs>
</svg>
