<svg width="32" height="32" viewBox="0 0 32 32" fill="none" xmlns="http://www.w3.org/2000/svg">
<g clip-path="url(#clip0_706_28278)">
<path d="M31.7445 8.36346L30.3535 5.64069C30.0277 5.00282 29.2488 4.44001 28.542 4.33146L27.5026 4.17191V3.18371L28.3903 3.32C28.4161 3.32394 28.4416 3.32588 28.4668 3.32588C28.7094 3.32588 28.9224 3.1489 28.9603 2.90174C29.0022 2.62883 28.815 2.37361 28.542 2.33174L17.0667 0.570113C16.4707 0.47856 15.5369 0.478685 14.9409 0.570113L3.46561 2.33167C3.1927 2.37354 3.00541 2.62877 3.04735 2.90167C3.08922 3.17465 3.34463 3.36206 3.61735 3.31994L4.505 3.18371V4.17191L3.46561 4.33146C2.75894 4.43995 1.97977 5.0022 1.65312 5.63944L0.25677 8.36346C-0.0666953 8.99452 -0.0866307 9.95592 0.210462 10.5999L1.6813 13.7879C1.98421 14.4444 2.7505 15.0237 3.4638 15.1353L4.505 15.2982V30.4986H4.00505C3.72896 30.4986 3.50511 30.7224 3.50511 30.9985C3.50511 31.2746 3.72896 31.4985 4.00505 31.4985H8.00463C8.28072 31.4985 8.50457 31.2746 8.50457 30.9985C8.50457 30.7224 8.28072 30.4986 8.00463 30.4986H7.50468V15.7674L14.9399 16.9304C15.2382 16.977 15.6209 17.0003 16.0038 17.0003C16.3866 17.0003 16.7694 16.977 17.0677 16.9304L24.5029 15.7674V30.4986H24.0029C23.7268 30.4986 23.503 30.7224 23.503 30.9985C23.503 31.2746 23.7268 31.4985 24.0029 31.4985H28.0025C28.2786 31.4985 28.5024 31.2746 28.5024 30.9985C28.5024 30.7224 28.2786 30.4986 28.0025 30.4986H27.5025V15.2982L28.5438 15.1353C29.2573 15.0237 30.0232 14.4439 30.3254 13.7868L31.7908 10.5998C32.0868 9.95592 32.0669 8.99446 31.7445 8.36346ZM26.5026 4.01843L25.5027 3.86495V2.87674L26.5026 3.03022V4.01843ZM15.0926 1.55838C15.5865 1.48258 16.4211 1.48258 16.915 1.55838L24.5029 2.72319V3.7114L17.0667 2.5699C16.4707 2.47841 15.5369 2.47841 14.9409 2.5699L7.50468 3.7114V2.72326L15.0926 1.55838ZM5.50489 3.03022L6.50479 2.87674V3.86495L5.50489 4.01843V3.03022ZM6.50479 30.4986H5.50489V15.4546L6.50479 15.611V30.4986ZM26.5026 30.4986H25.5027V15.6109L26.5026 15.4545V30.4986ZM30.8822 10.1821L29.4169 13.3691C29.2567 13.7173 28.7669 14.0883 28.3892 14.1474L16.9132 15.9425C16.4202 16.0196 15.5874 16.0196 15.0944 15.9425L3.61828 14.1474C3.24039 14.0883 2.74988 13.7173 2.58921 13.369L1.11836 10.181C0.95232 9.82112 0.965756 9.17225 1.14655 8.8196L2.5429 6.09558C2.72076 5.74856 3.23289 5.37878 3.61728 5.31979L15.0926 3.55823C15.3395 3.52036 15.6716 3.50136 16.0038 3.50136C16.3359 3.50136 16.668 3.5203 16.915 3.55823L28.3902 5.31979C28.7745 5.37878 29.2858 5.74856 29.4631 6.09564L30.8541 8.81841C31.0346 9.17163 31.048 9.82162 30.8822 10.1821Z" fill="white"/>
<path d="M20.0719 8.16078L17.5523 7.7947L16.4255 5.51151C16.3412 5.3409 16.1675 5.23285 15.9772 5.23285C15.7869 5.23285 15.6131 5.3409 15.5288 5.51151L14.402 7.7947L11.8824 8.16078C11.6941 8.18816 11.5376 8.32008 11.4788 8.50106C11.42 8.68204 11.4691 8.88071 11.6053 9.01357L13.4285 10.7908L12.9981 13.3002C12.9659 13.4877 13.043 13.6773 13.197 13.7892C13.3509 13.901 13.555 13.9158 13.7235 13.8272L15.9772 12.6424L18.2308 13.8272C18.3039 13.8656 18.3838 13.8846 18.4634 13.8846C18.5671 13.8846 18.6702 13.8524 18.7573 13.7891C18.9113 13.6773 18.9883 13.4877 18.9562 13.3001L18.5258 10.7907L20.3491 9.0135C20.4854 8.88071 20.5344 8.68198 20.4755 8.501C20.4167 8.32002 20.2602 8.18816 20.0719 8.16078ZM17.6396 10.2582C17.5217 10.373 17.468 10.5385 17.4958 10.7007L17.7994 12.4708L16.2098 11.635C16.0641 11.5584 15.8901 11.5584 15.7445 11.635L14.1549 12.4708L14.4584 10.7007C14.4863 10.5385 14.4325 10.373 14.3146 10.2582L13.0287 9.00463L14.8058 8.74641C14.9686 8.72272 15.1094 8.62049 15.1822 8.47294L15.9771 6.86242L16.7719 8.47294C16.8447 8.62049 16.9855 8.72279 17.1483 8.74641L18.9255 9.00463L17.6396 10.2582Z" fill="white"/>
<path d="M9.01986 8.63286L7.95317 8.47788L7.47609 7.51129C7.39185 7.34062 7.21806 7.23264 7.02777 7.23264C6.83747 7.23264 6.66368 7.34069 6.57944 7.51129L6.10243 8.47788L5.03573 8.63286C4.84737 8.66023 4.69095 8.79216 4.63215 8.97314C4.57334 9.15412 4.6224 9.35278 4.75863 9.48564L5.53049 10.2381L5.34826 11.3004C5.31607 11.488 5.39319 11.6775 5.54717 11.7894C5.63429 11.8527 5.7374 11.8849 5.84108 11.8849C5.92063 11.8849 6.0005 11.8659 6.07368 11.8275L7.02777 11.3259L7.98185 11.8275C8.15033 11.916 8.35444 11.9013 8.50836 11.7894C8.66234 11.6775 8.73946 11.488 8.70727 11.3004L8.52504 10.238L9.29696 9.48558C9.43326 9.35278 9.48225 9.15405 9.42345 8.97307C9.36464 8.79209 9.20822 8.66023 9.01986 8.63286ZM7.63889 9.70543C7.52103 9.8203 7.46728 9.98578 7.49509 10.1479L7.55046 10.4709L7.26037 10.3184C7.11476 10.2418 6.94071 10.2418 6.7951 10.3184L6.50501 10.4709L6.56038 10.1479C6.58819 9.98578 6.53444 9.8203 6.41658 9.70543L6.18192 9.47664L6.5062 9.42952C6.66899 9.40584 6.80979 9.3036 6.88259 9.15605L7.02764 8.86215L7.17269 9.15605C7.24549 9.3036 7.38629 9.4059 7.54908 9.42952L7.87336 9.47664L7.63889 9.70543Z" fill="white"/>
<path d="M26.9182 8.63286L25.8515 8.47788L25.3745 7.51129C25.2903 7.34069 25.1166 7.23264 24.9262 7.23264C24.7358 7.23264 24.5621 7.34069 24.4779 7.51129L24.0009 8.47788L22.9342 8.63286C22.7458 8.66023 22.5894 8.79216 22.5306 8.97314C22.4718 9.15412 22.5208 9.35278 22.6571 9.48564L23.4289 10.2381L23.2467 11.3004C23.2145 11.488 23.2916 11.6775 23.4456 11.7894C23.5327 11.8527 23.6358 11.8849 23.7395 11.8849C23.8191 11.8849 23.8989 11.8659 23.9721 11.8275L24.9262 11.3259L25.8803 11.8275C26.0488 11.916 26.2529 11.9013 26.4068 11.7894C26.5608 11.6775 26.6379 11.488 26.6057 11.3004L26.4235 10.238L27.1953 9.48558C27.3316 9.35278 27.3806 9.15405 27.3218 8.97307C27.263 8.79209 27.1066 8.66023 26.9182 8.63286ZM25.5373 9.70543C25.4195 9.8203 25.3657 9.98578 25.3935 10.1479L25.4489 10.4709L25.1588 10.3184C25.0132 10.2418 24.8391 10.2418 24.6935 10.3184L24.4034 10.4709L24.4588 10.1479C24.4866 9.98578 24.4329 9.8203 24.315 9.70543L24.0804 9.47664L24.4046 9.42952C24.5674 9.40584 24.7082 9.3036 24.781 9.15605L24.9261 8.86215L25.0711 9.15605C25.1439 9.3036 25.2847 9.4059 25.4475 9.42952L25.7718 9.47664L25.5373 9.70543Z" fill="white"/>
</g>
<defs>
<clipPath id="clip0_706_28278">
<rect width="32" height="32" fill="white"/>
</clipPath>
</defs>
</svg>
