<svg width="32" height="32" viewBox="0 0 32 32" fill="none" xmlns="http://www.w3.org/2000/svg">
<g clip-path="url(#clip0_706_28270)">
<path d="M1.08908 32.0002H30.9106C31.2097 32.0002 31.496 31.8791 31.7043 31.6648C31.902 31.4631 32.0085 31.1895 31.9992 30.9075C31.9599 29.3629 31.7643 27.8261 31.4152 26.321C30.9546 24.3453 29.406 22.8065 27.4276 22.3585L26.5451 22.1493C26.2792 21.1498 26.0656 20.1372 25.905 19.1152C25.6662 17.7347 25.726 16.319 26.08 14.9636C26.4564 13.6484 26.651 12.2881 26.6586 10.9205C26.5883 1.42017 19.9501 0.00152588 15.9732 0.00152588C12.0347 0.00152588 5.41361 1.42017 5.34427 10.9215C5.35379 12.2884 5.54739 13.6474 5.92018 14.9623C6.27392 16.3178 6.33569 17.7327 6.10108 19.1138C5.94264 20.1357 5.72878 21.1484 5.46097 22.1471L4.57941 22.3563C2.59927 22.8033 1.04855 24.3428 0.587144 26.3198C0.237061 27.8239 0.0405357 29.3595 0.000498301 30.9031C-0.0102434 31.1865 0.0959534 31.4619 0.294432 31.6648C0.502919 31.8794 0.789528 32.0005 1.08908 32.0002ZM7.46699 22.7669V27.6957C7.46455 28.545 7.80218 29.3599 8.40445 29.9585L9.37926 30.9336H5.33353V23.2725L7.46699 22.7669ZM9.15857 29.2044C8.75698 28.8053 8.53189 28.2621 8.5336 27.6957V22.514L10.8577 21.9633C10.9959 22.2994 11.1609 22.6241 11.3509 22.9339H11.2C10.6109 22.9339 10.1334 23.4115 10.1334 24.0005V26.1338C10.1334 26.7228 10.6109 27.2004 11.2 27.2004H13.3332C13.8993 27.2016 14.4423 26.9762 14.841 26.5747C14.9122 26.5002 14.9779 26.4206 15.0372 26.3364C15.1666 26.4353 15.3107 26.5136 15.464 26.5688V30.9363H10.8885L9.15857 29.2044ZM9.35217 9.60099C9.41149 9.63345 9.47643 9.65396 9.54356 9.66129H9.56554C9.62657 9.66641 9.68809 9.6608 9.74741 9.64468H9.76182L9.88974 9.60416C12.6245 9.0678 14.8131 6.76858 15.9161 5.3912C16.6627 6.71756 18.7287 9.66934 22.2323 9.66934H22.348C22.3521 9.66934 22.3558 9.66666 22.3597 9.66666C22.4466 9.67349 22.5342 9.65836 22.6141 9.62296C22.8333 9.49064 23.1136 9.51993 23.3008 9.69449C23.4966 9.89858 23.5781 10.3568 23.2161 11.0389C23.1031 11.2628 23.0081 11.4596 22.9339 11.6356C22.7442 12.0706 22.6483 12.5408 22.6529 13.0154C22.6631 13.1743 22.6129 13.3313 22.512 13.4548C22.3243 13.5945 22.0916 13.6606 21.8582 13.6409C21.6397 13.6411 21.4435 13.7744 21.3629 13.9775C21.358 13.9902 20.8439 15.2787 20.331 16.2487C20.1015 16.6451 19.8447 17.0252 19.5624 17.3858C18.8672 18.3196 18.041 19.1482 17.1092 19.8459L16.9368 19.9724C16.3785 20.3708 15.6288 20.3708 15.0702 19.9724L14.8949 19.8437C13.9631 19.1462 13.1367 18.3179 12.4416 17.3841C12.1594 17.024 11.9031 16.6444 11.6741 16.2482C11.1658 15.2782 10.6524 13.9892 10.647 13.9758C10.5662 13.7724 10.3697 13.6391 10.151 13.6394C9.91513 13.6594 9.68028 13.5923 9.49083 13.4504C9.39123 13.3274 9.34313 13.1704 9.35632 13.0127C9.35583 12.5359 9.2572 12.0645 9.06678 11.6278C8.99329 11.4544 8.89833 11.2574 8.77944 11.0223C8.42374 10.3541 8.50357 9.89663 8.69838 9.68912C8.8744 9.52189 9.13806 9.48649 9.35217 9.60099ZM23.4663 22.514V27.6957C23.4678 28.2621 23.2427 28.8053 22.8411 29.2044L21.1105 30.9336H16.5333V26.5688C16.6863 26.5136 16.8304 26.4353 16.9598 26.3364C17.0193 26.4206 17.0848 26.5002 17.156 26.5747C17.5554 26.977 18.0996 27.2023 18.6665 27.2004H20.7997C21.3888 27.2004 21.8663 26.7228 21.8663 26.1338V24.0005C21.8663 23.4115 21.3888 22.9339 20.7997 22.9339H20.6493C20.839 22.6239 21.0038 22.2992 21.142 21.9633L23.4663 22.514ZM26.6662 23.273V30.9336H22.6204L23.5952 29.9585C24.1975 29.3599 24.5351 28.545 24.5329 27.6957V22.7669L26.6662 23.273ZM11.7559 21.3217L12.384 18.9797C12.9497 19.6108 13.5759 20.1848 14.2533 20.694L14.4452 20.8347C15.3758 21.4999 16.6265 21.4999 17.5572 20.8347L17.7459 20.696C18.4238 20.1865 19.05 19.612 19.6157 18.9805L20.2445 21.3232C20.0368 21.9093 19.7319 22.4564 19.3427 22.9413L18.4717 22.9466C17.8692 22.9981 17.3181 23.3072 16.9598 23.7945C16.3946 23.357 15.6051 23.357 15.0399 23.7945C14.6815 23.3067 14.13 22.9974 13.5268 22.9461C13.5131 22.9461 13.4987 22.9461 13.4848 22.9461L12.656 22.9417C12.2681 22.4554 11.9639 21.9079 11.7559 21.3217ZM18.5202 24.011L19.5908 24.0047H19.5981L20.4062 24.0005H20.7997V26.1338H18.6665C18.0774 26.1338 17.5999 25.6562 17.5999 25.0671C17.5906 24.531 17.988 24.075 18.5202 24.011ZM12.4021 24.0047H12.4084L13.456 24.0105C14.0075 24.0862 14.4079 24.5733 14.3759 25.1289C14.3437 25.6846 13.8898 26.122 13.3332 26.1338H11.2V24.0005H11.5916L12.4021 24.0047ZM15.9998 24.5337C16.2945 24.5337 16.5333 24.7725 16.5333 25.0671C16.5333 25.3616 16.2945 25.6003 15.9998 25.6003C15.7054 25.6003 15.4667 25.3616 15.4667 25.0671C15.4667 24.7725 15.7054 24.5337 15.9998 24.5337ZM30.3774 26.5656C30.7121 27.9982 30.8908 29.4627 30.9106 30.9336H27.7328V23.5631C29.0616 24.0577 30.0544 25.1851 30.3774 26.5656ZM6.94699 14.6835C6.60081 13.4614 6.42065 12.198 6.41088 10.9278C6.47289 2.779 11.6453 1.06813 15.9998 1.06813C20.3427 1.06813 25.5322 2.779 25.5942 10.9259C25.5856 12.1966 25.4035 13.4602 25.0534 14.6818C24.6592 16.1854 24.5915 17.7559 24.8549 19.2876C25.0373 20.3942 25.2165 21.2402 25.3706 21.8698L21.2323 20.8886L20.4494 17.9739C20.7511 17.5845 21.0258 17.1746 21.2711 16.7474C21.6578 16.0162 22.0333 15.1432 22.2237 14.6857C22.6168 14.6491 22.9856 14.4799 23.2693 14.2058C23.5752 13.8791 23.7363 13.4431 23.7168 12.9961C23.7146 12.6702 23.7822 12.3475 23.9153 12.0501C23.9802 11.8948 24.0662 11.7198 24.1611 11.5301C24.7839 10.3568 24.5217 9.43351 24.0698 8.9599C23.6072 8.49141 22.9063 8.35079 22.2989 8.60493H22.2323C19.2551 8.60493 17.459 5.97345 16.8211 4.83214C16.6575 4.51867 16.346 4.30945 15.994 4.2765C15.6534 4.25404 15.3246 4.40467 15.1188 4.67687C14.328 5.67952 12.2166 8.06467 9.63585 8.57344H9.63048C9.03455 8.35616 8.36637 8.50875 7.924 8.96332C7.47529 9.43791 7.21724 10.361 7.83319 11.5172C7.93352 11.7174 8.01946 11.8904 8.08391 12.0447C8.21525 12.3433 8.28483 12.6656 8.28825 12.992C8.26432 13.4355 8.42178 13.8701 8.72451 14.1955C9.01014 14.4755 9.38366 14.6484 9.78208 14.6845C9.97128 15.1423 10.345 16.0145 10.7286 16.7464C10.9739 17.1737 11.2486 17.5836 11.5503 17.973L10.7676 20.8901L6.63328 21.8673C6.78733 21.2448 6.96652 20.4006 7.1506 19.2844C7.40962 17.7537 7.34029 16.1854 6.94699 14.6835ZM1.62226 26.5656C1.94524 25.1851 2.93812 24.0579 4.26693 23.5631V30.9382H1.0671C1.10421 29.4659 1.29024 28.0009 1.62226 26.5656Z" fill="white"/>
</g>
<defs>
<clipPath id="clip0_706_28270">
<rect width="32" height="32" fill="white"/>
</clipPath>
</defs>
</svg>
