<svg width="48" height="44" viewBox="0 0 48 44" fill="none" xmlns="http://www.w3.org/2000/svg">
<circle cx="40" cy="12" r="8" fill="#FA5926"/>
<path d="M36.539 14.57V13.052L40.015 8.08H42.116V12.942H43.018V14.57H42.116V16H40.235V14.57H36.539ZM40.367 10.148L38.519 12.942H40.367V10.148Z" fill="white"/>
<g clip-path="url(#clip0_706_25137)">
<path d="M22.938 17.9262C22.938 18.2207 23.1766 18.4593 23.4711 18.4593H24.5371C24.8316 18.4593 25.0702 18.2207 25.0702 17.9262C25.0702 17.632 24.8316 17.3933 24.5371 17.3933V14.7279C24.5371 14.5124 24.4074 14.3181 24.2082 14.2355C24.009 14.1531 23.7797 14.1988 23.6272 14.3511L23.0943 14.8842C22.9417 15.0365 22.8963 15.2658 22.9787 15.465C23.0613 15.6642 23.2555 15.7939 23.4711 15.7942V17.3933C23.1766 17.3933 22.938 17.632 22.938 17.9262Z" fill="white"/>
<path d="M28.8017 28.0543C28.4415 28.0563 28.084 28.1191 27.7446 28.2404C27.558 27.6167 27.3216 27.0089 27.0378 26.4232C28.0569 26.2428 28.8002 25.3579 28.8017 24.3229C28.8017 23.1453 27.8471 22.1907 26.6694 22.1907H26.5297C26.7374 21.406 26.7131 20.5777 26.46 19.8064C28.1132 18.6419 28.7213 16.4764 27.9158 14.6215C27.1103 12.7666 25.113 11.7326 23.1333 12.1454C21.1538 12.5585 19.7363 14.305 19.7398 16.3271C19.7388 16.7748 19.8092 17.2199 19.9487 17.6454C18.4944 18.6608 17.8281 20.4757 18.2803 22.1907H15.3773C15.508 21.8473 15.508 21.468 15.3773 21.1247H15.4753C16.3584 21.1247 17.0744 20.4087 17.0744 19.5256C17.0744 18.6421 16.3584 17.9262 15.4753 17.9262H14.311C14.4418 17.5828 14.4418 17.2035 14.311 16.8602H14.9422C15.8253 16.8602 16.5415 16.1442 16.5415 15.2611C16.5415 14.3779 15.8253 13.6619 14.9422 13.6619H7.4794C6.59624 13.6619 5.88028 14.3779 5.88028 15.2611C5.88201 15.4429 5.91526 15.6233 5.97827 15.7942H5.34715C4.46399 15.7942 3.74803 16.5101 3.74803 17.3933C3.74803 18.2765 4.46399 18.9924 5.34715 18.9924H6.51139C6.38066 19.3358 6.38066 19.7151 6.51139 20.0584H6.4134C5.53024 20.0584 4.81428 20.7744 4.81428 21.6576C4.81502 21.8548 4.85298 22.0498 4.92566 22.2329C3.93136 22.4348 3.21639 23.3085 3.2149 24.3229C3.21639 25.3579 3.95964 26.2428 4.979 26.4232C4.69495 27.0089 4.45853 27.6167 4.27197 28.2404C2.97674 27.7787 1.53118 28.1967 0.682249 29.2786C-0.166683 30.3605 -0.229199 31.8638 0.527446 33.0125C1.28384 34.1608 2.68972 34.6972 4.01893 34.3444C4.41164 36.1799 5.22237 37.9004 6.38835 39.3717L4.818 40.9426C4.3588 41.4005 4.17894 42.0689 4.3459 42.6955C4.51286 43.3222 5.00158 43.8119 5.62798 43.9806C6.25413 44.1493 6.92271 43.9709 7.38191 43.513L9.03437 41.8605C13.2279 44.7749 18.7914 44.7749 22.9849 41.8605L24.6332 43.5082C25.0911 43.9669 25.759 44.1463 26.3851 43.9791C27.0113 43.8119 27.5007 43.3234 27.6689 42.6975C27.8374 42.0716 27.6588 41.4033 27.2008 40.9448L25.6295 39.3732C26.7952 37.9014 27.6054 36.1804 27.9979 34.3444C28.2601 34.4144 28.5303 34.4501 28.8017 34.4511C30.568 34.4511 31.9999 33.0191 31.9999 31.2526C31.9999 29.4862 30.568 28.0543 28.8017 28.0543ZM24.0043 13.1288C25.4642 13.1286 26.7391 14.1174 27.1023 15.5317C27.4655 16.9458 26.825 18.4266 25.5454 19.1299C25.0745 19.3928 24.5434 19.529 24.0043 19.5256C22.7443 19.5246 21.6021 18.7841 21.0874 17.6342C20.8998 17.2241 20.8038 16.7781 20.8058 16.3271C20.8075 14.5615 22.2385 13.1305 24.0043 13.1288ZM19.2067 21.1247C19.2079 20.1515 19.653 19.2321 20.4151 18.6273C21.4959 20.3217 23.616 21.0272 25.4967 20.3187C25.6615 20.9359 25.6349 21.5888 25.4206 22.1907H19.3895C19.2674 21.8486 19.2054 21.4879 19.2067 21.1247ZM6.94653 15.2611C6.94653 14.9666 7.18518 14.7279 7.4794 14.7279H14.9422C15.2366 14.7279 15.4753 14.9666 15.4753 15.2611C15.4753 15.5555 15.2366 15.7942 14.9422 15.7942H7.4794C7.18518 15.7942 6.94653 15.5555 6.94653 15.2611ZM4.81428 17.3933C4.81428 17.0988 5.05293 16.8602 5.34715 16.8602H12.8099C13.1044 16.8602 13.343 17.0988 13.343 17.3933C13.343 17.6875 13.1044 17.9262 12.8099 17.9262H5.34715C5.05293 17.9262 4.81428 17.6875 4.81428 17.3933ZM7.4794 19.5256C7.4794 19.2311 7.71806 18.9924 8.01253 18.9924H15.4753C15.7698 18.9924 16.0084 19.2311 16.0084 19.5256C16.0084 19.8198 15.7698 20.0584 15.4753 20.0584H8.01253C7.71806 20.0584 7.4794 19.8198 7.4794 19.5256ZM6.4134 21.1247H13.8762C14.1706 21.1247 14.4093 21.3633 14.4093 21.6576C14.4093 21.952 14.1706 22.1907 13.8762 22.1907H6.4134C6.11893 22.1907 5.88028 21.952 5.88028 21.6576C5.88028 21.3633 6.11893 21.1247 6.4134 21.1247ZM3.2149 33.3848C2.35357 33.3876 1.57534 32.8715 1.24217 32.0772C0.908994 31.2828 1.08662 30.3659 1.69243 29.7534C2.298 29.1409 3.21267 28.9531 4.01099 29.2771C3.73165 30.5909 3.67459 31.9425 3.8418 33.2752C3.63986 33.3436 3.4285 33.3809 3.2149 33.3848ZM6.6265 42.758C6.33203 43.0471 5.85993 43.0453 5.56745 42.7543C5.42505 42.6156 5.34467 42.4254 5.34467 42.2264C5.34467 42.0277 5.42505 41.8372 5.56745 41.6985L7.08396 40.182C7.42607 40.5462 7.79 40.8893 8.17353 41.2095L6.6265 42.758ZM4.81428 31.7857C4.81477 29.9239 5.27992 28.0918 6.16755 26.4552H9.61165C9.90613 26.4552 10.1448 26.2165 10.1448 25.9221C10.1448 25.6278 9.90613 25.3892 9.61165 25.3892H5.34715C4.75846 25.3892 4.28115 24.9119 4.28115 24.3229C4.28115 23.7342 4.75846 23.2569 5.34715 23.2569H26.6694C27.2584 23.2569 27.7357 23.7342 27.7357 24.3229C27.7357 24.9119 27.2584 25.3892 26.6694 25.3892H11.7439C11.4494 25.3892 11.2108 25.6278 11.2108 25.9221C11.2108 26.2165 11.4494 26.4552 11.7439 26.4552H25.849C28.075 30.5607 27.5186 35.6166 24.4528 39.1395C21.387 42.6623 16.4564 43.9119 12.0828 42.274C7.70937 40.6365 4.81204 36.4558 4.81428 31.7857ZM26.4476 41.7005C26.5903 41.8399 26.6702 42.0312 26.6694 42.2306C26.6687 42.4298 26.5871 42.6204 26.4434 42.7588C26.1499 43.0458 25.6808 43.0458 25.3876 42.7588L23.8415 41.2127C24.2251 40.8927 24.5888 40.5496 24.9306 40.1857L26.4476 41.7005ZM28.8017 33.3848C28.5886 33.3818 28.377 33.3459 28.1748 33.2784C28.3422 31.9455 28.2849 30.5942 28.0058 29.2803C28.8044 28.9524 29.722 29.1384 30.3298 29.7514C30.9379 30.3644 31.116 31.2836 30.7813 32.0794C30.4467 32.8753 29.665 33.3908 28.8017 33.3848Z" fill="white"/>
</g>
<defs>
<clipPath id="clip0_706_25137">
<rect width="32" height="32" fill="white" transform="translate(0 12)"/>
</clipPath>
</defs>
</svg>
