<svg width="32" height="32" viewBox="0 0 32 32" fill="none" xmlns="http://www.w3.org/2000/svg">
<g clip-path="url(#clip0_706_28272)">
<path d="M17.1539 10.5757C17.4041 10.7141 17.7117 10.6965 17.9446 10.5303C18.1894 10.3572 18.3127 10.0584 18.2615 9.76298L18.0381 8.4003L18.9755 7.44627C19.1828 7.2356 19.2538 6.9263 19.1588 6.64629C19.0707 6.37263 18.8356 6.17221 18.5515 6.12802L17.2679 5.93272L16.6835 4.69552C16.5609 4.42845 16.2938 4.25732 15.9999 4.25732C15.706 4.25732 15.4392 4.42845 15.3166 4.69552L14.73 5.93175L13.4459 6.12704C13.162 6.17147 12.9272 6.3719 12.839 6.64531C12.7438 6.92508 12.8146 7.23462 13.0219 7.4453L13.9598 8.39981L13.7359 9.76298C13.6857 10.0589 13.8102 10.3574 14.056 10.5298C14.2886 10.6963 14.5965 10.7138 14.8467 10.5752L15.9997 9.94216L17.1539 10.5757ZM14.8889 9.33528L15.0361 8.43667C15.0774 8.18864 14.998 7.93574 14.8228 7.75557L14.1754 7.09547L15.0552 6.96218C15.3061 6.92337 15.521 6.76176 15.6281 6.5318L16.0014 5.745L16.3746 6.53106C16.4816 6.76127 16.6964 6.92288 16.9473 6.96145L17.8279 7.09547L17.1793 7.75557C17.0042 7.93525 16.9249 8.18742 16.9661 8.43496L17.1134 9.33455L16.3612 8.92198C16.1376 8.79919 15.8666 8.79919 15.643 8.92198L14.8889 9.33528Z" fill="white"/>
<path d="M31.8384 19.7067C31.6451 19.3915 31.3016 19.1999 30.9318 19.2014H23.3677C23.1423 18.5642 22.5413 18.1375 21.8658 18.1346H19.1993V16.5348C19.1966 15.8594 18.7697 15.2583 18.1327 15.033V13.5873C19.6788 13.187 21.081 12.3604 22.18 11.202H25.0655C26.2437 11.202 27.1987 10.2468 27.1987 9.06866V6.40237C27.1987 5.22424 26.2437 4.26924 25.0655 4.26924H24.5324V3.20268C25.4158 3.20268 26.1321 2.48619 26.1321 1.60271C26.1321 0.718997 25.4158 0.00274658 24.5324 0.00274658H7.46711C6.58339 0.00274658 5.86714 0.718997 5.86714 1.60271C5.86714 2.48619 6.58339 3.20268 7.46711 3.20268V4.26924H6.93371C5.75558 4.26924 4.80058 5.22424 4.80058 6.40237V9.06866C4.80058 10.2468 5.75558 11.202 6.93371 11.202H9.81946C10.9185 12.3604 12.3207 13.187 13.8665 13.5873V15.033C13.2296 15.2583 12.8029 15.8594 12.7999 16.5348V18.1346H10.1334C9.45792 18.1375 8.85689 18.5642 8.63181 19.2014H1.06749C0.697154 19.2009 0.352944 19.3928 0.158624 19.7082C-0.0356962 20.0233 -0.0525406 20.4171 0.11395 20.7479L1.74224 24.0008L0.11395 27.2571C-0.0510758 27.5877 -0.0334992 27.9802 0.160821 28.2944C0.354897 28.6088 0.698131 28.8002 1.06749 28.8004H4.26742V30.9336C4.26742 31.5226 4.74492 32.0001 5.33398 32.0001H26.6655C27.2546 32.0001 27.7321 31.5226 27.7321 30.9336V28.8004H30.9318C31.3023 28.8009 31.6465 28.6093 31.8411 28.2939C32.0357 27.9785 32.0525 27.5847 31.8858 27.2539L30.2572 24.0008L31.8853 20.7447C32.052 20.4142 32.0342 20.0209 31.8384 19.7067ZM23.4658 20.8011L25.5989 22.4011H23.4658V20.8011ZM25.0655 5.33581C25.6546 5.33581 26.1321 5.81331 26.1321 6.40237V9.06866C26.1321 9.65772 25.6546 10.1352 25.0655 10.1352H23.0486C24.0168 8.72201 24.5338 7.0488 24.5324 5.33581H25.0655ZM6.93371 1.60271C6.93371 1.30806 7.17246 1.06931 7.46711 1.06931H24.5324C24.8268 1.06931 25.0655 1.30806 25.0655 1.60271C25.0655 1.89712 24.8268 2.13587 24.5324 2.13587H7.46711C7.17246 2.13587 6.93371 1.89712 6.93371 1.60271ZM6.93371 10.1352C6.34464 10.1352 5.86714 9.65772 5.86714 9.06866V6.40237C5.86714 5.81331 6.34464 5.33581 6.93371 5.33581H7.46711C7.4654 7.0488 7.98269 8.72201 8.95063 10.1352H6.93371ZM8.53367 5.33581V3.20268H23.4658V5.33581C23.4658 9.45901 20.1231 12.8018 15.9996 12.8018C11.8762 12.8018 8.53367 9.45901 8.53367 5.33581ZM15.9996 13.8683C16.3565 13.8661 16.7127 13.8415 17.0662 13.7943V14.9349H14.9331V13.7943C15.2868 13.8415 15.643 13.8661 15.9996 13.8683ZM13.8665 16.5348C13.8665 16.2402 14.1052 16.0014 14.3999 16.0014H17.5996C17.894 16.0014 18.1327 16.2402 18.1327 16.5348V18.1346H13.8665V16.5348ZM10.1334 19.2014H21.8658C22.1605 19.2014 22.3992 19.4401 22.3992 19.7345V22.4011H9.60024V19.7345C9.60024 19.4401 9.83899 19.2014 10.1334 19.2014ZM19.7327 27.2007C19.7327 29.2623 18.0615 30.9336 15.9996 30.9336C13.938 30.9336 12.2668 29.2623 12.2668 27.2007C12.2668 25.1389 13.938 23.4676 15.9996 23.4676C18.0602 23.4703 19.73 25.1401 19.7327 27.2007ZM6.40055 22.4011L8.53367 20.8011V22.4011H6.40055ZM1.06749 27.7339L2.69528 24.4807C2.84566 24.1802 2.84566 23.8262 2.69528 23.5257L1.06749 20.2679H7.46711L4.48054 22.5077C4.47102 22.5151 4.46613 22.5263 4.4571 22.5344C4.42927 22.5595 4.40413 22.5876 4.3824 22.6181C4.36214 22.643 4.34432 22.6698 4.32918 22.6982C4.31551 22.7279 4.30453 22.7589 4.29671 22.7909C4.28573 22.8256 4.27841 22.8612 4.27523 22.8976C4.27523 22.9103 4.26791 22.921 4.26791 22.9337V27.7334L1.06749 27.7339ZM5.33398 30.9336V23.4676H12.9894C11.8581 24.3765 11.2 25.7494 11.2 27.2007C11.2 28.6518 11.8581 30.0247 12.9894 30.9336H5.33398ZM19.0101 30.9336C20.1414 30.0247 20.7993 28.6518 20.7993 27.2007C20.7993 25.7494 20.1414 24.3765 19.0101 23.4676H26.6655V30.9336H19.0101ZM29.3025 23.5208C29.1521 23.8216 29.1521 24.1753 29.3025 24.4761L30.9318 27.7339H27.7321V22.9342C27.7321 22.9215 27.7257 22.9108 27.7245 22.8981C27.7213 22.8617 27.7142 22.8261 27.7033 22.7914C27.6954 22.7592 27.6845 22.7279 27.6708 22.6982C27.6554 22.6701 27.6376 22.6435 27.6173 22.6186C27.5956 22.5881 27.5707 22.56 27.5426 22.5348C27.5336 22.5268 27.529 22.5156 27.5192 22.5082L24.5324 20.2679H30.9318L29.3025 23.5208Z" fill="white"/>
<path d="M15.052 29.3336H16.9473C17.242 29.3336 17.4807 29.0949 17.4807 28.8002C17.4807 28.5058 17.242 28.2671 16.9473 28.2671H16.533V25.0671C16.533 24.8516 16.4029 24.6572 16.2037 24.5747C16.0045 24.4922 15.7753 24.5376 15.6227 24.6902L15.0893 25.2234C14.937 25.3759 14.8913 25.6054 14.9738 25.8046C15.0564 26.0038 15.2507 26.1337 15.4665 26.1337V28.2671H15.052C14.7575 28.2671 14.5188 28.5058 14.5188 28.8002C14.5188 29.0949 14.7575 29.3336 15.052 29.3336Z" fill="white"/>
<path d="M11.7334 21.3343H12.2668C12.5612 21.3343 12.7999 21.0955 12.7999 20.8009C12.7999 20.5065 12.5612 20.2677 12.2668 20.2677H11.7334C11.4387 20.2677 11.2 20.5065 11.2 20.8009C11.2 21.0955 11.4387 21.3343 11.7334 21.3343Z" fill="white"/>
<path d="M14.3999 21.3343H20.2661C20.5605 21.3343 20.7992 21.0955 20.7992 20.8009C20.7992 20.5065 20.5605 20.2677 20.2661 20.2677H14.3999C14.1052 20.2677 13.8665 20.5065 13.8665 20.8009C13.8665 21.0955 14.1052 21.3343 14.3999 21.3343Z" fill="white"/>
</g>
<defs>
<clipPath id="clip0_706_28272">
<rect width="32" height="32" fill="white"/>
</clipPath>
</defs>
</svg>
