<svg width="32" height="32" viewBox="0 0 32 32" fill="none" xmlns="http://www.w3.org/2000/svg">
<g clip-path="url(#clip0_706_28285)">
<path d="M31.6267 7.05005L26.4929 0.781986C26.0884 0.286137 25.4819 -0.00121683 24.842 3.87353e-06H7.15796C6.51806 -0.00121683 5.91162 0.286137 5.50732 0.781986L0.378174 7.04688C0.165283 7.30152 0.0368652 7.61597 0.0107422 7.94678C0.00585937 7.96411 0.00244141 7.98193 0 8C0.00170899 8.01025 0.00366211 8.02026 0.00634762 8.03052C-0.00659181 8.35864 0.0810547 8.68311 0.257568 8.95996L14.6602 31.2534C14.9265 31.6819 15.3835 31.9551 15.887 31.9866C15.8899 31.988 15.8928 31.9895 15.896 31.9905C15.9302 31.9971 15.9651 32.0002 16 32C16.0359 31.9997 16.0715 31.9961 16.1067 31.9888C16.1099 31.9878 16.1128 31.9866 16.1157 31.9851C16.6147 31.9536 17.0679 31.6838 17.3332 31.2602L31.7424 8.95996C31.9194 8.68286 32.0073 8.35791 31.9941 8.0293C31.9941 8.01856 32 8.01025 32 7.99951C32 7.98023 31.991 7.96436 31.9892 7.94605C31.9634 7.61743 31.8367 7.30444 31.6267 7.05005ZM30.5871 7.46655H21.7766L25.6484 1.43994C25.6543 1.44702 25.6619 1.45166 25.6677 1.45874L30.5871 7.46655ZM16 28.8059L11.8533 8.53345H20.1467L16 28.8059ZM16.9766 1.06665H24.6196L20.8 7.01343L16.9766 1.06665ZM19.8235 7.46655H12.1765L16 1.51953L19.8235 7.46655ZM11.1999 7.01343L7.38037 1.06665H15.0234L11.1999 7.01343ZM6.33227 1.45752C6.33813 1.45069 6.3457 1.4458 6.35156 1.43897L10.2234 7.46655H1.41284L6.33227 1.45752ZM1.25171 8.53345H10.7649L15.1716 30.0769L1.25171 8.53345ZM16.8284 30.0769L21.2351 8.53345H30.7483L16.8284 30.0769Z" fill="white"/>
<path d="M4.46183 6.26783C4.68962 6.45435 5.02555 6.42091 5.21208 6.19312L6.5131 4.60474C6.69963 4.37696 6.66642 4.04078 6.43864 3.85426C6.21086 3.66749 5.87468 3.70069 5.68791 3.92848L4.38762 5.51734C4.20109 5.74513 4.2343 6.08106 4.46183 6.26783Z" fill="white"/>
<path d="M5.32736 10.9109C5.22775 10.7429 5.04416 10.6426 4.84884 10.6499C4.65353 10.657 4.47799 10.7705 4.39083 10.9456C4.30392 11.1206 4.31979 11.3291 4.43185 11.489L9.25338 18.9558C9.35299 19.1238 9.53659 19.2241 9.7319 19.2168C9.92721 19.2097 10.1027 19.0962 10.1897 18.9211C10.2768 18.7461 10.261 18.5376 10.1489 18.3777L5.32736 10.9109Z" fill="white"/>
<path d="M11.8704 21.0442L11.5259 20.511C11.4263 20.3428 11.2427 20.2427 11.0474 20.2497C10.8521 20.2571 10.6763 20.3703 10.5894 20.5454C10.5025 20.7204 10.5181 20.9292 10.6304 21.0891L10.9744 21.6223C11.1375 21.8616 11.4612 21.927 11.7044 21.7702C11.9473 21.6133 12.021 21.2912 11.8704 21.0442Z" fill="white"/>
</g>
<defs>
<clipPath id="clip0_706_28285">
<rect width="32" height="32" fill="white"/>
</clipPath>
</defs>
</svg>
